<?xml version="1.0" encoding="iso-8859-1"?>
<!-- Generator: Adobe Illustrator 19.0.0, SVG Export Plug-In . SVG Version: 6.00 Build 0)  -->
<svg version="1.1" id="Layer_1" xmlns="http://www.w3.org/2000/svg" xmlns:xlink="http://www.w3.org/1999/xlink" x="0px" y="0px"
	 viewBox="0 0 512.139 512.139" style="enable-background:new 0 0 512.139 512.139;" xml:space="preserve">
<g>
	<g>
		<path d="M452.405,128.069H59.872c-32.99,0-59.733,26.744-59.733,59.733v298.667c0,14.138,11.461,25.6,25.6,25.6h460.8
			c14.138,0,25.6-11.462,25.6-25.6V187.803C512.139,154.813,485.395,128.069,452.405,128.069z M495.072,486.469
			c0,4.713-3.82,8.533-8.533,8.533h-460.8c-4.713,0-8.533-3.82-8.533-8.533V187.803c0-23.564,19.103-42.667,42.667-42.667h392.533
			c23.564,0,42.667,19.103,42.667,42.667V486.469z"/>
	</g>
</g>
<g>
	<g>
		<path d="M452.405,162.203H59.872c-14.138,0-25.6,11.461-25.6,25.6v170.667c0,14.138,11.461,25.6,25.6,25.6h392.533
			c14.138,0,25.6-11.461,25.6-25.6V187.803C478.005,173.664,466.544,162.203,452.405,162.203z M460.939,358.469
			c0,4.713-3.821,8.533-8.533,8.533H59.872c-4.713,0-8.533-3.82-8.533-8.533V187.803c0-4.713,3.82-8.533,8.533-8.533h392.533
			c4.713,0,8.533,3.82,8.533,8.533V358.469z"/>
	</g>
</g>
<g>
	<g>
		<path d="M68.405,409.669c-18.851,0-34.133,15.282-34.133,34.133c0,18.851,15.282,34.133,34.133,34.133
			s34.133-15.282,34.133-34.133C102.539,424.951,87.257,409.669,68.405,409.669z M68.405,460.869
			c-9.426,0-17.067-7.641-17.067-17.067s7.641-17.067,17.067-17.067s17.067,7.641,17.067,17.067S77.831,460.869,68.405,460.869z"/>
	</g>
</g>
<g>
	<g>
		<path d="M435.339,409.669c-18.851,0-34.133,15.282-34.133,34.133c0,18.851,15.282,34.133,34.133,34.133
			s34.133-15.282,34.133-34.133C469.472,424.951,454.19,409.669,435.339,409.669z M435.339,460.869
			c-9.426,0-17.067-7.641-17.067-17.067s7.641-17.067,17.067-17.067s17.067,7.641,17.067,17.067S444.764,460.869,435.339,460.869z"
			/>
	</g>
</g>
<g>
	<g>
		<path d="M435.339,409.669H68.405c-4.713,0-8.533,3.82-8.533,8.533s3.82,8.533,8.533,8.533h366.933c4.713,0,8.533-3.82,8.533-8.533
			S440.051,409.669,435.339,409.669z"/>
	</g>
</g>
<g>
	<g>
		<path d="M435.339,460.869H68.405c-4.713,0-8.533,3.82-8.533,8.533s3.82,8.533,8.533,8.533h366.933c4.713,0,8.533-3.82,8.533-8.533
			S440.051,460.869,435.339,460.869z"/>
	</g>
</g>
<g>
	<g>
		<path d="M179.339,409.669c-4.713,0-8.533,3.82-8.533,8.533v42.667c0,4.713,3.82,8.533,8.533,8.533s8.533-3.82,8.533-8.533v-42.667
			C187.872,413.49,184.051,409.669,179.339,409.669z"/>
	</g>
</g>
<g>
	<g>
		<path d="M213.472,409.669c-4.713,0-8.533,3.82-8.533,8.533v42.667c0,4.713,3.821,8.533,8.533,8.533
			c4.713,0,8.533-3.82,8.533-8.533v-42.667C222.005,413.49,218.185,409.669,213.472,409.669z"/>
	</g>
</g>
<g>
	<g>
		<path d="M256.139,409.669c-4.713,0-8.533,3.82-8.533,8.533v42.667c0,4.713,3.82,8.533,8.533,8.533c4.713,0,8.533-3.82,8.533-8.533
			v-42.667C264.672,413.49,260.851,409.669,256.139,409.669z"/>
	</g>
</g>
<g>
	<g>
		<path d="M298.805,409.669c-4.713,0-8.533,3.82-8.533,8.533v42.667c0,4.713,3.82,8.533,8.533,8.533s8.533-3.82,8.533-8.533v-42.667
			C307.339,413.49,303.518,409.669,298.805,409.669z"/>
	</g>
</g>
<g>
	<g>
		<path d="M332.939,409.669c-4.713,0-8.533,3.82-8.533,8.533v42.667c0,4.713,3.821,8.533,8.533,8.533
			c4.713,0,8.533-3.82,8.533-8.533v-42.667C341.472,413.49,337.651,409.669,332.939,409.669z"/>
	</g>
</g>
<g>
	<g>
		<path d="M93.323,201.456c-0.411-1.065-1.052-2.027-1.877-2.816l-1.28-1.024c-0.436-0.338-0.926-0.598-1.451-0.768
			c-0.509-0.258-1.056-0.431-1.621-0.512c-1.094-0.258-2.234-0.258-3.328,0c-0.545,0.146-1.063,0.376-1.536,0.683
			c-0.544,0.187-1.06,0.445-1.536,0.768l-1.28,1.024c-0.754,0.829-1.36,1.782-1.792,2.816c-0.481,1.012-0.715,2.123-0.683,3.243
			c-0.059,2.327,0.835,4.577,2.475,6.229l1.28,1.024c0.476,0.323,0.992,0.581,1.536,0.768l1.536,0.512h1.707l1.621-0.341
			c0.565-0.082,1.112-0.255,1.621-0.512c0.524-0.17,1.015-0.43,1.451-0.768l1.28-1.024
			C93.896,208.323,94.637,204.651,93.323,201.456z"/>
	</g>
</g>
<g>
	<g>
		<path d="M127.456,201.456c-0.432-1.034-1.038-1.987-1.792-2.816l-1.28-1.024c-0.476-0.323-0.992-0.581-1.536-0.768
			c-0.509-0.258-1.056-0.431-1.621-0.512c-1.094-0.258-2.234-0.258-3.328,0c-0.555,0.198-1.074,0.487-1.536,0.853
			c-0.544,0.187-1.06,0.445-1.536,0.768l-1.28,1.024c-0.777,0.812-1.386,1.769-1.792,2.816c-0.913,2.065-0.913,4.42,0,6.485
			c0.393,1.054,1.004,2.013,1.792,2.816c0.405,0.368,0.832,0.71,1.28,1.024c0.476,0.323,0.992,0.581,1.536,0.768l1.536,0.512h1.707
			l1.621-0.171c0.565-0.082,1.112-0.255,1.621-0.512c0.544-0.187,1.06-0.445,1.536-0.768l1.28-1.024
			c1.559-1.635,2.443-3.799,2.475-6.059C128.148,203.697,127.916,202.535,127.456,201.456z"/>
	</g>
</g>
<g>
	<g>
		<path d="M161.589,201.627c-0.389-1.077-1.033-2.043-1.877-2.816c-0.37-0.407-0.802-0.752-1.28-1.024
			c-0.436-0.338-0.926-0.598-1.451-0.768c-0.509-0.258-1.057-0.431-1.621-0.512c-1.635-0.346-3.337-0.166-4.864,0.512
			c-2.144,0.776-3.832,2.464-4.608,4.608c-0.913,2.065-0.913,4.42,0,6.485c0.406,1.047,1.015,2.004,1.792,2.816
			c1.635,1.559,3.799,2.443,6.059,2.475l1.621-0.171c0.565-0.082,1.112-0.255,1.621-0.512c0.524-0.17,1.015-0.43,1.451-0.768
			l1.28-1.024c0.823-0.791,1.464-1.752,1.877-2.816C162.502,206.047,162.502,203.692,161.589,201.627z"/>
	</g>
</g>
<g>
	<g>
		<path d="M193.881,198.86c-3.319-3.346-8.722-3.369-12.068-0.05c-0.754,0.829-1.36,1.782-1.792,2.816
			c-0.913,2.065-0.913,4.42,0,6.485c0.406,1.047,1.015,2.004,1.792,2.816c1.635,1.559,3.799,2.443,6.059,2.475
			c2.234-0.013,4.373-0.901,5.959-2.474C197.178,207.61,197.2,202.207,193.881,198.86z"/>
	</g>
</g>
<g>
	<g>
		<path d="M229.856,201.456c-0.391-1.055-1.002-2.015-1.792-2.816c-2.036-2.026-4.954-2.892-7.765-2.304
			c-0.545,0.146-1.063,0.376-1.536,0.683c-0.544,0.187-1.06,0.445-1.536,0.768l-1.28,1.024c-0.79,0.801-1.401,1.761-1.792,2.816
			c-0.437,1.026-0.669,2.128-0.683,3.243c-0.059,2.327,0.835,4.577,2.475,6.229l1.28,1.024c0.476,0.323,0.992,0.581,1.536,0.768
			l1.536,0.512h1.707c4.713,0,8.533-3.821,8.533-8.533C230.592,203.693,230.357,202.521,229.856,201.456z"/>
	</g>
</g>
<g>
	<g>
		<path d="M262.197,198.811c-0.831-0.752-1.783-1.358-2.816-1.792c-2.061-0.935-4.425-0.935-6.485,0
			c-1.047,0.406-2.004,1.015-2.816,1.792c-0.017,0.016-0.033,0.033-0.049,0.049c-3.319,3.346-3.297,8.749,0.049,12.068
			c0.812,0.777,1.769,1.386,2.816,1.792c1.013,0.478,2.123,0.711,3.243,0.683c1.119,0.029,2.23-0.205,3.243-0.683
			c1.033-0.435,1.985-1.041,2.816-1.792c0.017-0.016,0.033-0.033,0.049-0.049C265.566,207.532,265.543,202.129,262.197,198.811z"/>
	</g>
</g>
<g>
	<g>
		<path d="M296.331,198.981c-2.017-1.998-4.896-2.861-7.68-2.304c-0.565,0.079-1.113,0.252-1.621,0.512
			c-0.544,0.187-1.06,0.445-1.536,0.768c-0.448,0.314-0.875,0.656-1.28,1.024c-0.017,0.016-0.033,0.033-0.049,0.049
			c-3.319,3.346-3.297,8.749,0.049,12.068c0.405,0.368,0.832,0.71,1.28,1.024c0.476,0.323,0.992,0.581,1.536,0.768
			c0.509,0.258,1.057,0.431,1.621,0.512h1.621c2.152-0.03,4.214-0.871,5.772-2.357C299.454,207.794,299.583,202.392,296.331,198.981
			z"/>
	</g>
</g>
<g>
	<g>
		<path d="M330.464,198.64c-2.036-2.026-4.954-2.892-7.765-2.304c-0.555,0.198-1.074,0.487-1.536,0.853
			c-0.544,0.187-1.06,0.445-1.536,0.768l-1.28,1.024c-0.017,0.016-0.033,0.033-0.049,0.049c-3.319,3.346-3.297,8.749,0.049,12.068
			l1.28,1.024c0.476,0.323,0.992,0.581,1.536,0.768l1.536,0.512h1.707c2.441,0.066,4.794-0.918,6.462-2.701
			C334.087,207.259,333.906,201.859,330.464,198.64z"/>
	</g>
</g>
<g>
	<g>
		<path d="M366.389,201.627c-0.391-1.055-1.002-2.015-1.792-2.816l-1.365-1.024c-0.436-0.338-0.926-0.598-1.451-0.768
			c-0.509-0.258-1.056-0.431-1.621-0.512c-2.784-0.557-5.663,0.306-7.68,2.304c-0.79,0.801-1.401,1.761-1.792,2.816
			c-0.437,1.026-0.669,2.128-0.683,3.243c0.017,3.445,2.104,6.542,5.291,7.851c1.026,0.437,2.128,0.669,3.243,0.683l1.621-0.171
			c0.565-0.082,1.112-0.255,1.621-0.512c0.524-0.17,1.015-0.43,1.451-0.768l1.365-1.024c1.597-1.61,2.488-3.79,2.475-6.059
			C367.059,203.754,366.827,202.653,366.389,201.627z"/>
	</g>
</g>
<g>
	<g>
		<path d="M392.771,196.336c-4.713-0.027-8.555,3.771-8.583,8.484c-0.027,4.713,3.771,8.555,8.484,8.583
			c2.259-0.031,4.423-0.915,6.059-2.475c1.603-1.59,2.511-3.751,2.524-6.009C401.282,200.206,397.483,196.364,392.771,196.336z"/>
	</g>
</g>
<g>
	<g>
		<path d="M432.864,198.64c-2.036-2.026-4.954-2.892-7.765-2.304c-0.545,0.146-1.063,0.376-1.536,0.683
			c-0.544,0.187-1.06,0.445-1.536,0.768l-1.28,1.024c-1.597,1.61-2.488,3.791-2.475,6.059c-0.009,1.173,0.223,2.335,0.683,3.413
			c0.393,1.054,1.004,2.013,1.792,2.816c0.405,0.368,0.832,0.71,1.28,1.024c0.476,0.323,0.992,0.581,1.536,0.768l1.536,0.512h1.707
			l1.621-0.341c0.565-0.082,1.112-0.255,1.621-0.512c0.544-0.187,1.06-0.445,1.536-0.768l1.28-1.024
			c0.017-0.016,0.033-0.033,0.049-0.049C436.232,207.362,436.21,201.959,432.864,198.64z"/>
	</g>
</g>
<g>
	<g>
		<path d="M91.445,232.944c-0.37-0.407-0.802-0.752-1.28-1.024c-0.436-0.338-0.926-0.598-1.451-0.768
			c-0.509-0.258-1.056-0.431-1.621-0.512c-2.784-0.557-5.663,0.306-7.68,2.304c-0.754,0.829-1.36,1.782-1.792,2.816
			c-0.481,1.012-0.715,2.123-0.683,3.243c-0.059,2.327,0.835,4.577,2.475,6.229c0.405,0.368,0.832,0.71,1.28,1.024
			c0.476,0.323,0.992,0.581,1.536,0.768l1.536,0.512h1.707l1.621-0.171c0.565-0.082,1.112-0.255,1.621-0.512
			c0.524-0.17,1.015-0.43,1.451-0.768c0.478-0.272,0.91-0.617,1.28-1.024c1.629-1.596,2.551-3.778,2.56-6.059
			C93.996,236.722,93.074,234.54,91.445,232.944z"/>
	</g>
</g>
<g>
	<g>
		<path d="M125.664,232.773l-1.28-1.024c-0.476-0.323-0.992-0.581-1.536-0.768c-0.509-0.258-1.056-0.431-1.621-0.512
			c-1.103-0.171-2.225-0.171-3.328,0c-0.545,0.146-1.063,0.376-1.536,0.683c-0.544,0.187-1.06,0.445-1.536,0.768l-1.28,1.024
			c-0.754,0.829-1.36,1.782-1.792,2.816c-0.437,1.026-0.669,2.128-0.683,3.243c-0.059,2.327,0.835,4.577,2.475,6.229
			c0.405,0.368,0.832,0.71,1.28,1.024c0.476,0.323,0.992,0.581,1.536,0.768l1.536,0.512h1.707l1.621-0.341
			c0.565-0.082,1.112-0.255,1.621-0.512c0.544-0.187,1.06-0.445,1.536-0.768l1.28-1.024c0.017-0.016,0.033-0.033,0.049-0.049
			C129.032,241.495,129.01,236.092,125.664,232.773z"/>
	</g>
</g>
<g>
	<g>
		<path d="M161.589,235.76c-0.411-1.065-1.052-2.027-1.877-2.816c-0.37-0.407-0.802-0.752-1.28-1.024
			c-0.436-0.338-0.926-0.598-1.451-0.768c-0.509-0.258-1.056-0.431-1.621-0.512c-2.784-0.557-5.663,0.306-7.68,2.304
			c-0.777,0.812-1.386,1.768-1.792,2.816c-0.437,1.026-0.669,2.128-0.683,3.243c0,4.713,3.821,8.533,8.533,8.533l1.621-0.171
			c0.565-0.082,1.112-0.255,1.621-0.512c0.524-0.17,1.015-0.43,1.451-0.768c0.478-0.272,0.91-0.617,1.28-1.024
			c0.842-0.775,1.485-1.741,1.877-2.816C162.502,240.18,162.502,237.825,161.589,235.76z"/>
	</g>
</g>
<g>
	<g>
		<g>
			<path d="M187.872,247.536c-0.052-0.001-0.103-0.008-0.155-0.009c-0.063,0.001-0.124,0.009-0.187,0.009H187.872z"/>
			<path d="M196.064,237.296c-0.091-0.535-0.264-1.053-0.512-1.536c-0.189-0.543-0.447-1.059-0.768-1.536l-1.024-1.28
				c-0.016-0.017-0.033-0.033-0.049-0.049c-3.346-3.319-8.749-3.297-12.068,0.049c-0.367,0.405-0.709,0.833-1.024,1.28
				c-0.325,0.475-0.583,0.991-0.768,1.536c-0.245,0.484-0.417,1.002-0.512,1.536c-0.037,0.568-0.037,1.138,0,1.707
				c0.013,1.115,0.245,2.217,0.683,3.243c0.406,1.047,1.015,2.004,1.792,2.816c1.598,1.524,3.701,2.396,5.904,2.465
				c4.626-0.1,8.347-3.874,8.347-8.524C196.105,238.434,196.105,237.864,196.064,237.296z"/>
		</g>
	</g>
</g>
<g>
	<g>
		<path d="M228.064,232.773c-2.036-2.026-4.954-2.892-7.765-2.304c-0.545,0.146-1.063,0.376-1.536,0.683
			c-0.544,0.187-1.06,0.445-1.536,0.768c-0.448,0.314-0.875,0.656-1.28,1.024c-0.017,0.016-0.033,0.033-0.049,0.049
			c-3.319,3.346-3.297,8.749,0.049,12.068c1.61,1.597,3.79,2.488,6.059,2.475c1.127-0.067,2.229-0.357,3.243-0.853
			c1.037-0.425,1.981-1.051,2.776-1.841C231.368,241.52,231.385,236.117,228.064,232.773z"/>
	</g>
</g>
<g>
	<g>
		<path d="M263.989,235.76c-0.406-1.047-1.015-2.004-1.792-2.816c-0.812-0.777-1.769-1.386-2.816-1.792
			c-2.078-0.854-4.408-0.854-6.485,0c-2.144,0.776-3.832,2.464-4.608,4.608c-0.481,1.012-0.715,2.123-0.683,3.243
			c0,4.713,3.82,8.533,8.533,8.533c4.713,0,8.533-3.82,8.533-8.533C264.659,237.888,264.427,236.786,263.989,235.76z"/>
	</g>
</g>
<g>
	<g>
		<path d="M296.331,232.944c-2.017-1.998-4.896-2.861-7.68-2.304c-0.565,0.079-1.113,0.252-1.621,0.512
			c-0.544,0.187-1.06,0.445-1.536,0.768l-1.28,1.024c-1.597,1.61-2.488,3.79-2.475,6.059c-0.009,1.173,0.223,2.335,0.683,3.413
			c0.432,1.034,1.038,1.987,1.792,2.816l1.28,1.024c0.476,0.323,0.992,0.581,1.536,0.768c0.509,0.258,1.057,0.431,1.621,0.512h1.621
			c2.293,0.013,4.494-0.896,6.108-2.524C299.699,241.666,299.677,236.263,296.331,232.944z"/>
	</g>
</g>
<g>
	<g>
		<path d="M330.464,232.773l-1.365-1.024c-0.436-0.338-0.926-0.598-1.451-0.768c-0.509-0.258-1.057-0.431-1.621-0.512
			c-1.094-0.258-2.234-0.258-3.328,0c-0.555,0.198-1.074,0.487-1.536,0.853c-0.544,0.187-1.06,0.445-1.536,0.768l-1.28,1.024
			c-0.017,0.016-0.033,0.033-0.049,0.049c-3.319,3.346-3.297,8.749,0.049,12.068l1.28,1.024c0.476,0.323,0.992,0.581,1.536,0.768
			l1.536,0.512h1.707c2.441,0.066,4.794-0.918,6.462-2.701C334.087,241.392,333.906,235.992,330.464,232.773z"/>
	</g>
</g>
<g>
	<g>
		<path d="M366.389,235.76c-0.432-1.034-1.038-1.987-1.792-2.816l-1.365-1.024c-0.436-0.338-0.926-0.598-1.451-0.768
			c-0.509-0.258-1.056-0.431-1.621-0.512c-1.635-0.346-3.337-0.166-4.864,0.512c-1.047,0.406-2.004,1.015-2.816,1.792
			c-0.754,0.829-1.36,1.782-1.792,2.816c-0.437,1.026-0.669,2.128-0.683,3.243c-0.013,2.268,0.877,4.448,2.475,6.059
			c0.812,0.777,1.769,1.386,2.816,1.792c1.026,0.437,2.128,0.669,3.243,0.683l1.621-0.171c0.565-0.082,1.112-0.255,1.621-0.512
			c0.524-0.17,1.015-0.43,1.451-0.768c0.488-0.295,0.946-0.638,1.365-1.024c1.559-1.635,2.443-3.799,2.475-6.059
			C367.059,237.888,366.827,236.786,366.389,235.76z"/>
	</g>
</g>
<g>
	<g>
		<path d="M398.731,233.043c-3.319-3.346-8.722-3.368-12.068-0.049c-3.346,3.319-3.368,8.722-0.049,12.068
			c1.61,1.597,3.79,2.488,6.059,2.475c2.268,0.013,4.448-0.877,6.059-2.475C402.03,241.735,402.03,236.37,398.731,233.043z"/>
	</g>
</g>
<g>
	<g>
		<path d="M432.864,232.773c-2.036-2.026-4.954-2.892-7.765-2.304c-0.545,0.146-1.063,0.376-1.536,0.683
			c-0.544,0.187-1.06,0.445-1.536,0.768c-0.448,0.314-0.875,0.656-1.28,1.024c-1.597,1.61-2.488,3.79-2.475,6.059
			c-0.059,2.327,0.835,4.577,2.475,6.229l1.28,1.024c0.476,0.323,0.992,0.581,1.536,0.768l1.536,0.512h1.707
			c2.441,0.066,4.794-0.918,6.462-2.701C436.487,241.392,436.306,235.992,432.864,232.773z"/>
	</g>
</g>
<g>
	<g>
		<path d="M91.445,266.907c-0.37-0.407-0.802-0.752-1.28-1.024c-0.436-0.338-0.926-0.598-1.451-0.768
			c-0.509-0.258-1.056-0.431-1.621-0.512c-1.094-0.258-2.234-0.258-3.328,0c-0.545,0.146-1.063,0.376-1.536,0.683
			c-0.544,0.187-1.06,0.445-1.536,0.768c-0.448,0.314-0.875,0.656-1.28,1.024c-0.017,0.016-0.033,0.033-0.049,0.049
			c-3.319,3.346-3.297,8.749,0.049,12.068c1.61,1.597,3.79,2.488,6.059,2.475l1.621-0.341c0.565-0.082,1.112-0.255,1.621-0.512
			c0.524-0.17,1.015-0.43,1.451-0.768l1.28-1.024c0.017-0.016,0.033-0.033,0.049-0.049
			C94.814,275.628,94.791,270.225,91.445,266.907z"/>
	</g>
</g>
<g>
	<g>
		<path d="M125.664,266.907l-1.28-1.024c-0.476-0.323-0.992-0.581-1.536-0.768c-0.509-0.258-1.056-0.431-1.621-0.512
			c-1.094-0.258-2.234-0.258-3.328,0c-0.545,0.146-1.063,0.376-1.536,0.683c-0.544,0.187-1.06,0.445-1.536,0.768
			c-0.448,0.314-0.875,0.656-1.28,1.024c-1.597,1.61-2.488,3.791-2.475,6.059c-0.009,1.173,0.223,2.335,0.683,3.413
			c0.406,1.047,1.015,2.004,1.792,2.816l1.28,1.024c0.476,0.323,0.992,0.581,1.536,0.768l1.536,0.512h1.707l1.621-0.171
			c0.565-0.082,1.112-0.255,1.621-0.512c0.544-0.187,1.06-0.445,1.536-0.768l1.28-1.024c0.754-0.829,1.36-1.782,1.792-2.816
			c0.437-1.026,0.669-2.128,0.683-3.243C128.151,270.818,127.264,268.585,125.664,266.907z"/>
	</g>
</g>
<g>
	<g>
		<path d="M161.589,269.893c-0.411-1.065-1.052-2.027-1.877-2.816l-1.28-1.024c-0.436-0.338-0.926-0.598-1.451-0.768
			c-0.509-0.258-1.057-0.431-1.621-0.512c-2.784-0.557-5.663,0.306-7.68,2.304c-1.628,1.614-2.537,3.816-2.524,6.108
			c0.027,4.713,3.87,8.511,8.583,8.484l1.621-0.171c0.565-0.082,1.112-0.255,1.621-0.512c0.524-0.17,1.015-0.43,1.451-0.768
			c0.478-0.272,0.91-0.617,1.28-1.024C162.163,276.76,162.904,273.088,161.589,269.893z"/>
	</g>
</g>
<g>
	<g>
		<path d="M193.931,266.907c-2.036-2.026-4.954-2.892-7.765-2.304c-0.545,0.146-1.063,0.376-1.536,0.683
			c-0.544,0.187-1.06,0.445-1.536,0.768c-0.448,0.314-0.875,0.656-1.28,1.024c-1.597,1.61-2.488,3.791-2.475,6.059
			c0.013,1.115,0.245,2.217,0.683,3.243c0.406,1.047,1.015,2.004,1.792,2.816c1.635,1.559,3.799,2.443,6.059,2.475
			c2.441,0.066,4.794-0.918,6.462-2.701C197.553,275.526,197.373,270.126,193.931,266.907z"/>
	</g>
</g>
<g>
	<g>
		<path d="M230.368,271.344c-0.078-0.566-0.251-1.114-0.512-1.621c-0.189-0.543-0.447-1.059-0.768-1.536
			c-0.315-0.447-0.657-0.875-1.024-1.28c-2.036-2.026-4.954-2.892-7.765-2.304c-0.604,0.128-1.181,0.359-1.707,0.683
			c-0.544,0.187-1.06,0.445-1.536,0.768l-1.28,1.024l-1.024,1.28c-0.325,0.475-0.583,0.991-0.768,1.536
			c-0.257,0.509-0.43,1.057-0.512,1.621c-0.041,0.54-0.041,1.082,0,1.621c-0.059,2.327,0.835,4.577,2.475,6.229
			c0.405,0.368,0.832,0.71,1.28,1.024c0.476,0.323,0.992,0.581,1.536,0.768l1.536,0.512h1.707c4.713,0,8.533-3.821,8.533-8.533
			C230.537,272.535,230.48,271.935,230.368,271.344z"/>
	</g>
</g>
<g>
	<g>
		<path d="M263.989,269.893c-0.406-1.047-1.015-2.004-1.792-2.816c-0.016-0.017-0.033-0.033-0.049-0.049
			c-3.346-3.319-8.749-3.297-12.068,0.049c-0.777,0.812-1.386,1.769-1.792,2.816c-0.481,1.012-0.715,2.123-0.683,3.243
			c0,4.713,3.82,8.533,8.533,8.533c4.713,0,8.533-3.821,8.533-8.533C264.658,272.021,264.427,270.919,263.989,269.893z"/>
	</g>
</g>
<g>
	<g>
		<path d="M296.331,267.077c-2.017-1.998-4.896-2.861-7.68-2.304c-0.565,0.079-1.113,0.252-1.621,0.512
			c-0.544,0.187-1.06,0.445-1.536,0.768l-1.28,1.024c-1.597,1.61-2.488,3.791-2.475,6.059c-0.059,2.327,0.835,4.577,2.475,6.229
			l1.28,1.024c0.476,0.323,0.992,0.581,1.536,0.768c0.509,0.258,1.057,0.431,1.621,0.512h1.621c2.293,0.013,4.494-0.896,6.108-2.524
			C299.699,275.799,299.677,270.396,296.331,267.077z"/>
	</g>
</g>
<g>
	<g>
		<path d="M332.085,272.283c-0.471-4.713-4.674-8.151-9.387-7.68c-0.555,0.198-1.074,0.487-1.536,0.853
			c-0.544,0.187-1.06,0.445-1.536,0.768l-1.28,1.024c-0.017,0.016-0.033,0.033-0.049,0.049c-3.319,3.346-3.297,8.749,0.049,12.068
			l1.28,1.024c0.476,0.323,0.992,0.581,1.536,0.768l1.536,0.512h1.707C329.118,281.198,332.557,276.996,332.085,272.283z"/>
	</g>
</g>
<g>
	<g>
		<path d="M364.597,267.077l-1.365-1.024c-0.436-0.338-0.926-0.598-1.451-0.768c-0.509-0.258-1.056-0.431-1.621-0.512
			c-1.635-0.346-3.337-0.166-4.864,0.512c-2.028,0.864-3.643,2.479-4.506,4.506c-1.847,4.336,0.171,9.348,4.506,11.195
			c1.026,0.437,2.128,0.669,3.243,0.683l1.621-0.171c0.565-0.082,1.112-0.255,1.621-0.512c0.524-0.17,1.015-0.43,1.451-0.768
			l1.365-1.024c0.017-0.016,0.033-0.033,0.049-0.049C367.966,275.799,367.943,270.396,364.597,267.077z"/>
	</g>
</g>
<g>
	<g>
		<path d="M398.731,267.347c-3.319-3.346-8.722-3.368-12.068-0.049c-3.346,3.319-3.368,8.722-0.049,12.068l1.28,1.024
			c0.476,0.323,0.992,0.581,1.536,0.768l1.536,0.512h1.707h1.621c0.565-0.082,1.112-0.255,1.621-0.512
			c0.544-0.187,1.06-0.445,1.536-0.768l1.28-1.024C402.03,276.039,402.03,270.674,398.731,267.347z"/>
	</g>
</g>
<g>
	<g>
		<path d="M434.656,269.723c-0.432-1.034-1.038-1.987-1.792-2.816c-2.036-2.026-4.954-2.892-7.765-2.304
			c-0.545,0.146-1.063,0.376-1.536,0.683c-0.544,0.187-1.06,0.445-1.536,0.768l-1.28,1.024c-0.754,0.829-1.36,1.782-1.792,2.816
			c-0.437,1.026-0.669,2.128-0.683,3.243c-0.059,2.327,0.835,4.577,2.475,6.229l1.28,1.024c0.476,0.323,0.992,0.581,1.536,0.768
			l1.536,0.512h1.707c4.713,0,8.533-3.821,8.533-8.533C435.348,271.963,435.116,270.801,434.656,269.723z"/>
	</g>
</g>
<g>
	<g>
		<path d="M91.445,301.04l-1.28-1.024c-0.436-0.338-0.926-0.598-1.451-0.768c-0.509-0.258-1.056-0.431-1.621-0.512
			c-1.094-0.258-2.234-0.258-3.328,0c-0.545,0.146-1.063,0.376-1.536,0.683c-0.544,0.187-1.06,0.445-1.536,0.768l-1.28,1.024
			c-1.597,1.61-2.488,3.79-2.475,6.059c-0.06,1.177,0.175,2.35,0.683,3.413c0.432,1.034,1.038,1.987,1.792,2.816l1.28,1.024
			c0.476,0.323,0.992,0.581,1.536,0.768l1.536,0.512h1.707l1.621-0.341c0.565-0.082,1.112-0.255,1.621-0.512
			c0.524-0.17,1.015-0.43,1.451-0.768l1.28-1.024c0.823-0.791,1.464-1.752,1.877-2.816C94.637,307.147,93.896,303.475,91.445,301.04
			z"/>
	</g>
</g>
<g>
	<g>
		<path d="M127.456,303.856c-0.432-1.034-1.038-1.987-1.792-2.816l-1.28-1.024c-0.476-0.323-0.992-0.581-1.536-0.768
			c-0.509-0.258-1.056-0.431-1.621-0.512c-1.094-0.258-2.234-0.258-3.328,0c-0.555,0.198-1.074,0.487-1.536,0.853
			c-0.544,0.187-1.06,0.445-1.536,0.768l-1.28,1.024c-0.777,0.812-1.386,1.768-1.792,2.816c-0.913,2.065-0.913,4.42,0,6.485
			c0.406,1.047,1.015,2.004,1.792,2.816l1.28,1.024c0.476,0.323,0.992,0.581,1.536,0.768l1.536,0.512h1.707l1.621-0.341
			c0.565-0.082,1.112-0.255,1.621-0.512c0.544-0.187,1.06-0.445,1.536-0.768l1.28-1.024c0.777-0.812,1.386-1.768,1.792-2.816
			C128.369,308.276,128.369,305.921,127.456,303.856z"/>
	</g>
</g>
<g>
	<g>
		<path d="M162.272,307.269c-0.01-2.281-0.931-4.462-2.56-6.059l-1.28-1.024c-0.436-0.338-0.926-0.598-1.451-0.768
			c-0.509-0.258-1.057-0.431-1.621-0.512c-2.784-0.557-5.663,0.306-7.68,2.304c-1.597,1.61-2.488,3.79-2.475,6.059
			c-0.037,0.568-0.037,1.138,0,1.707c0.148,0.544,0.378,1.062,0.683,1.536c0.185,0.545,0.443,1.061,0.768,1.536l1.024,1.28
			c1.635,1.559,3.799,2.443,6.059,2.475l1.792-0.171c0.565-0.082,1.112-0.255,1.621-0.512c0.524-0.17,1.015-0.43,1.451-0.768
			l1.28-1.024l1.109-1.28c0.321-0.477,0.579-0.993,0.768-1.536c0.248-0.483,0.421-1.001,0.512-1.536
			C162.317,308.408,162.317,307.837,162.272,307.269z"/>
	</g>
</g>
<g>
	<g>
		<path d="M195.552,306.416c-0.471-4.713-4.674-8.151-9.387-7.68c-0.545,0.146-1.063,0.376-1.536,0.683
			c-0.544,0.187-1.06,0.445-1.536,0.768l-1.28,1.024c-1.597,1.61-2.488,3.79-2.475,6.059c0.013,1.115,0.245,2.217,0.683,3.243
			c0.406,1.047,1.015,2.004,1.792,2.816c1.635,1.559,3.799,2.443,6.059,2.475C192.585,315.331,196.023,311.129,195.552,306.416z"/>
	</g>
</g>
<g>
	<g>
		<path d="M229.685,306.416c-0.471-4.713-4.674-8.151-9.387-7.68c-0.555,0.198-1.074,0.487-1.536,0.853
			c-0.544,0.187-1.06,0.445-1.536,0.768l-1.28,1.024c-0.017,0.016-0.033,0.033-0.049,0.049c-3.319,3.346-3.297,8.749,0.049,12.068
			c0.405,0.368,0.832,0.71,1.28,1.024c0.476,0.323,0.992,0.581,1.536,0.768l1.536,0.512h1.707
			C226.718,315.331,230.157,311.129,229.685,306.416z"/>
	</g>
</g>
<g>
	<g>
		<path d="M264.672,307.269c-0.067-0.549-0.182-1.092-0.341-1.621c-0.078-0.566-0.251-1.114-0.512-1.621
			c-0.172-0.524-0.432-1.014-0.768-1.451l-1.024-1.365c-0.016-0.017-0.033-0.033-0.049-0.049c-3.346-3.319-8.749-3.297-12.068,0.049
			c-0.386,0.42-0.729,0.877-1.024,1.365c-0.339,0.435-0.599,0.926-0.768,1.451c-0.257,0.509-0.43,1.057-0.512,1.621
			c-0.041,0.54-0.041,1.082,0,1.621c-0.041,0.568-0.041,1.139,0,1.707c0.148,0.544,0.378,1.062,0.683,1.536
			c0.185,0.545,0.443,1.061,0.768,1.536c0.317,0.446,0.659,0.873,1.024,1.28c1.635,1.559,3.799,2.443,6.059,2.475
			c2.318,0.012,4.551-0.875,6.229-2.475l1.024-1.28c0.321-0.477,0.579-0.993,0.768-1.536c0.248-0.483,0.421-1.001,0.512-1.536
			C264.717,308.408,264.717,307.837,264.672,307.269z"/>
	</g>
</g>
<g>
	<g>
		<path d="M296.331,301.211c-2.017-1.998-4.896-2.861-7.68-2.304c-0.565,0.079-1.113,0.252-1.621,0.512
			c-0.544,0.187-1.06,0.445-1.536,0.768c-0.448,0.314-0.875,0.656-1.28,1.024c-0.777,0.812-1.386,1.769-1.792,2.816
			c-0.437,1.026-0.669,2.128-0.683,3.243c-0.059,2.327,0.835,4.577,2.475,6.229c0.405,0.368,0.832,0.71,1.28,1.024
			c0.476,0.323,0.992,0.581,1.536,0.768c0.509,0.258,1.057,0.431,1.621,0.512h1.621c2.293,0.013,4.494-0.896,6.108-2.524
			C299.699,309.932,299.677,304.529,296.331,301.211z"/>
	</g>
</g>
<g>
	<g>
		<path d="M330.464,301.04l-1.365-1.024c-0.436-0.338-0.926-0.598-1.451-0.768c-0.509-0.258-1.057-0.431-1.621-0.512
			c-1.099-0.218-2.229-0.218-3.328,0c-0.555,0.198-1.074,0.487-1.536,0.853c-0.544,0.187-1.06,0.445-1.536,0.768l-1.28,1.024
			c-0.017,0.016-0.033,0.033-0.049,0.049c-3.319,3.346-3.297,8.749,0.049,12.068c0.405,0.368,0.832,0.71,1.28,1.024
			c0.476,0.323,0.992,0.581,1.536,0.768l1.536,0.512h1.707l1.621-0.171c0.565-0.082,1.112-0.255,1.621-0.512
			c0.524-0.17,1.015-0.43,1.451-0.768c0.488-0.295,0.946-0.638,1.365-1.024c0.788-0.803,1.399-1.762,1.792-2.816
			c0.437-1.026,0.669-2.128,0.683-3.243C332.951,304.951,332.064,302.718,330.464,301.04z"/>
	</g>
</g>
<g>
	<g>
		<path d="M366.389,304.027c-0.406-1.047-1.015-2.004-1.792-2.816c-0.42-0.386-0.877-0.729-1.365-1.024
			c-0.436-0.338-0.926-0.598-1.451-0.768c-0.509-0.258-1.056-0.431-1.621-0.512c-1.635-0.346-3.337-0.167-4.864,0.512
			c-2.144,0.776-3.832,2.464-4.608,4.608c-0.437,1.026-0.669,2.128-0.683,3.243c-0.013,2.268,0.877,4.448,2.475,6.059
			c0.812,0.777,1.769,1.386,2.816,1.792c1.013,0.478,2.123,0.712,3.243,0.683l1.621-0.171c0.565-0.082,1.112-0.255,1.621-0.512
			c0.524-0.17,1.015-0.43,1.451-0.768l1.365-1.024c1.559-1.635,2.443-3.799,2.475-6.059
			C367.059,306.154,366.827,305.053,366.389,304.027z"/>
	</g>
</g>
<g>
	<g>
		<path d="M398.632,301.211c-3.346-3.319-8.749-3.297-12.068,0.049s-3.297,8.749,0.049,12.068c1.61,1.597,3.79,2.488,6.059,2.475
			c2.258-0.013,4.419-0.921,6.009-2.524C402,309.933,401.978,304.53,398.632,301.211z"/>
	</g>
</g>
<g>
	<g>
		<path d="M432.864,301.04c-2.036-2.026-4.954-2.892-7.765-2.304c-0.545,0.146-1.063,0.376-1.536,0.683
			c-0.544,0.187-1.06,0.445-1.536,0.768l-1.28,1.024c-1.597,1.61-2.488,3.79-2.475,6.059c-0.009,1.173,0.223,2.335,0.683,3.413
			c0.432,1.034,1.038,1.987,1.792,2.816l1.28,1.024c0.476,0.323,0.992,0.581,1.536,0.768l1.536,0.512h1.707
			c2.268,0.013,4.448-0.877,6.059-2.475c0.754-0.829,1.36-1.782,1.792-2.816c0.437-1.026,0.669-2.128,0.683-3.243
			C435.351,304.951,434.464,302.718,432.864,301.04z"/>
	</g>
</g>
<g>
	<g>
		<path d="M91.445,335.173c-0.37-0.407-0.802-0.752-1.28-1.024c-0.436-0.338-0.926-0.598-1.451-0.768
			c-0.509-0.258-1.056-0.431-1.621-0.512c-1.094-0.258-2.234-0.258-3.328,0c-0.555,0.198-1.074,0.487-1.536,0.853
			c-0.544,0.187-1.06,0.445-1.536,0.768c-0.448,0.314-0.875,0.656-1.28,1.024c-0.017,0.016-0.033,0.033-0.049,0.049
			c-3.319,3.346-3.297,8.749,0.049,12.068c0.405,0.368,0.832,0.71,1.28,1.024c0.476,0.323,0.992,0.581,1.536,0.768l1.536,0.512
			h1.707l1.621-0.341c0.565-0.082,1.112-0.255,1.621-0.512c0.524-0.17,1.015-0.43,1.451-0.768c0.478-0.272,0.91-0.617,1.28-1.024
			c0.017-0.016,0.033-0.033,0.049-0.049C94.814,343.895,94.791,338.492,91.445,335.173z"/>
	</g>
</g>
<g>
	<g>
		<path d="M125.664,335.173l-1.28-1.024c-0.476-0.323-0.992-0.581-1.536-0.768c-0.509-0.258-1.056-0.431-1.621-0.512
			c-1.094-0.258-2.234-0.258-3.328,0c-0.545,0.146-1.063,0.376-1.536,0.683c-0.544,0.187-1.06,0.445-1.536,0.768l-1.28,1.024
			c-0.777,0.812-1.386,1.768-1.792,2.816c-0.437,1.026-0.669,2.128-0.683,3.243c-0.059,2.327,0.835,4.577,2.475,6.229
			c0.405,0.368,0.832,0.71,1.28,1.024c0.476,0.323,0.992,0.581,1.536,0.768l1.536,0.512h1.707l1.621-0.341
			c0.565-0.082,1.112-0.255,1.621-0.512c0.544-0.187,1.06-0.445,1.536-0.768l1.28-1.024c0.017-0.016,0.033-0.033,0.049-0.049
			C129.032,343.895,129.01,338.492,125.664,335.173z"/>
	</g>
</g>
<g>
	<g>
		<path d="M161.931,339.696c-0.091-0.535-0.264-1.053-0.512-1.536c-0.189-0.543-0.447-1.059-0.768-1.536l-1.109-1.28l-1.28-1.024
			c-0.436-0.338-0.926-0.598-1.451-0.768c-0.509-0.258-1.056-0.431-1.621-0.512c-2.784-0.557-5.663,0.306-7.68,2.304l-1.024,1.28
			c-0.325,0.475-0.583,0.991-0.768,1.536c-0.245,0.484-0.417,1.002-0.512,1.536c-0.037,0.568-0.037,1.138,0,1.707
			c0,4.713,3.821,8.533,8.533,8.533l1.28-0.171c0.565-0.082,1.112-0.255,1.621-0.512c0.524-0.17,1.015-0.43,1.451-0.768l1.28-1.024
			c1.629-1.596,2.551-3.778,2.56-6.059C161.976,340.835,161.976,340.264,161.931,339.696z"/>
	</g>
</g>
<g>
	<g>
		<path d="M196.235,339.781c-0.078-0.566-0.251-1.114-0.512-1.621c-0.189-0.543-0.447-1.059-0.768-1.536l-1.024-1.28
			c-0.016-0.017-0.033-0.033-0.049-0.049c-3.346-3.319-8.749-3.297-12.068,0.049c-1.597,1.61-2.488,3.79-2.475,6.059
			c0.013,1.115,0.245,2.217,0.683,3.243c0.406,1.047,1.015,2.004,1.792,2.816c1.635,1.559,3.799,2.443,6.059,2.475
			c4.713,0,8.533-3.82,8.533-8.533C196.394,340.858,196.337,340.316,196.235,339.781z"/>
	</g>
</g>
<g>
	<g>
		<path d="M229.685,340.549c-0.471-4.713-4.674-8.151-9.387-7.68c-0.555,0.198-1.074,0.487-1.536,0.853
			c-0.544,0.187-1.06,0.445-1.536,0.768l-1.28,1.024c-0.017,0.016-0.033,0.033-0.049,0.049c-3.319,3.346-3.297,8.749,0.049,12.068
			c0.405,0.368,0.832,0.71,1.28,1.024c0.476,0.323,0.992,0.581,1.536,0.768l1.536,0.512h1.707
			C226.718,349.465,230.157,345.262,229.685,340.549z"/>
	</g>
</g>
<g>
	<g>
		<path d="M262.197,335.344c-0.831-0.752-1.783-1.358-2.816-1.792c-2.078-0.854-4.408-0.854-6.485,0
			c-1.047,0.406-2.004,1.015-2.816,1.792c-1.628,1.614-2.537,3.816-2.524,6.108c0.027,4.713,3.87,8.511,8.583,8.484
			c2.293,0.013,4.494-0.896,6.108-2.524C265.566,344.066,265.544,338.663,262.197,335.344z"/>
	</g>
</g>
<g>
	<g>
		<path d="M296.331,335.344c-0.42-0.386-0.877-0.729-1.365-1.024c-0.436-0.338-0.926-0.598-1.451-0.768
			c-0.509-0.258-1.057-0.431-1.621-0.512c-1.066-0.257-2.177-0.257-3.243,0c-0.565,0.079-1.113,0.252-1.621,0.512
			c-0.544,0.187-1.06,0.445-1.536,0.768c-0.448,0.314-0.875,0.656-1.28,1.024c-1.597,1.61-2.488,3.79-2.475,6.059
			c-0.009,1.173,0.223,2.335,0.683,3.413c0.432,1.034,1.038,1.987,1.792,2.816l1.28,1.024c0.476,0.323,0.992,0.581,1.536,0.768
			c0.509,0.258,1.057,0.431,1.621,0.512h1.621c2.293,0.013,4.494-0.896,6.108-2.524
			C299.699,344.066,299.677,338.663,296.331,335.344z"/>
	</g>
</g>
<g>
	<g>
		<path d="M330.464,335.173c-2.036-2.026-4.954-2.892-7.765-2.304c-0.555,0.198-1.074,0.487-1.536,0.853
			c-0.544,0.187-1.06,0.445-1.536,0.768l-1.28,1.024c-0.017,0.016-0.033,0.033-0.049,0.049c-3.319,3.346-3.297,8.749,0.049,12.068
			c0.405,0.368,0.832,0.71,1.28,1.024c0.476,0.323,0.992,0.581,1.536,0.768l1.536,0.512h1.707c2.259-0.031,4.423-0.915,6.059-2.475
			c0.777-0.812,1.386-1.768,1.792-2.816c0.437-1.026,0.669-2.128,0.683-3.243C332.998,339.076,332.104,336.825,330.464,335.173z"/>
	</g>
</g>
<g>
	<g>
		<path d="M364.597,335.344l-1.365-1.024c-0.436-0.338-0.926-0.598-1.451-0.768c-0.509-0.258-1.056-0.431-1.621-0.512
			c-1.635-0.346-3.337-0.167-4.864,0.512c-3.187,1.309-5.273,4.406-5.291,7.851c0.013,1.115,0.245,2.217,0.683,3.243
			c0.393,1.054,1.004,2.013,1.792,2.816c1.635,1.559,3.799,2.443,6.059,2.475l1.621-0.171c0.565-0.082,1.112-0.255,1.621-0.512
			c0.524-0.17,1.015-0.43,1.451-0.768l1.365-1.024c0.788-0.803,1.399-1.762,1.792-2.816c0.437-1.026,0.669-2.128,0.683-3.243
			C367.085,339.134,366.195,336.954,364.597,335.344z"/>
	</g>
</g>
<g>
	<g>
		<path d="M398.731,335.173l-1.28-1.024c-0.476-0.323-0.992-0.581-1.536-0.768c-0.509-0.258-1.056-0.431-1.621-0.512
			c-1.094-0.258-2.234-0.258-3.328,0c-0.545,0.146-1.063,0.376-1.536,0.683c-0.544,0.187-1.06,0.445-1.536,0.768l-1.28,1.024
			c-0.017,0.016-0.033,0.033-0.049,0.049c-3.319,3.346-3.297,8.749,0.049,12.068c1.61,1.597,3.79,2.488,6.059,2.475
			c2.293-0.032,4.477-0.985,6.059-2.645c0.017-0.016,0.033-0.033,0.049-0.049C402.099,343.895,402.077,338.492,398.731,335.173z"/>
	</g>
</g>
<g>
	<g>
		<path d="M432.864,335.173c-2.036-2.026-4.954-2.892-7.765-2.304c-0.555,0.198-1.074,0.487-1.536,0.853
			c-0.544,0.187-1.06,0.445-1.536,0.768l-1.28,1.024c-0.017,0.016-0.033,0.033-0.049,0.049c-3.319,3.346-3.297,8.749,0.049,12.068
			l1.28,1.024c0.476,0.323,0.992,0.581,1.536,0.768l1.536,0.512h1.707l1.621-0.341c0.565-0.082,1.112-0.255,1.621-0.512
			c0.544-0.187,1.06-0.445,1.536-0.768l1.28-1.024c0.017-0.016,0.033-0.033,0.049-0.049
			C436.232,343.895,436.21,338.492,432.864,335.173z"/>
	</g>
</g>
<g>
	<g>
		<path d="M443.872,68.336c-14.138,0-25.6,11.461-25.6,25.6v42.667c0,4.713,3.82,8.533,8.533,8.533h34.133
			c4.713,0,8.533-3.82,8.533-8.533V93.936C469.472,79.797,458.01,68.336,443.872,68.336z M452.405,128.069h-17.067V93.936
			c0-4.713,3.82-8.533,8.533-8.533s8.533,3.82,8.533,8.533V128.069z"/>
	</g>
</g>
<g>
	<g>
		<path d="M428.341,85.403L10.208,8.603C5.495,7.754,0.987,10.887,0.139,15.6s2.284,9.221,6.997,10.069l418.133,76.8h1.536
			c4.713,0.424,8.877-3.053,9.301-7.765S433.054,85.827,428.341,85.403z"/>
	</g>
</g>
<g>
	<g>
		<path d="M8.672,0.069c-4.713,0-8.533,3.82-8.533,8.533v17.067c0,4.713,3.82,8.533,8.533,8.533s8.533-3.821,8.533-8.533V8.603
			C17.205,3.89,13.385,0.069,8.672,0.069z"/>
	</g>
</g>
<g>
</g>
<g>
</g>
<g>
</g>
<g>
</g>
<g>
</g>
<g>
</g>
<g>
</g>
<g>
</g>
<g>
</g>
<g>
</g>
<g>
</g>
<g>
</g>
<g>
</g>
<g>
</g>
<g>
</g>
</svg>
