<?xml version="1.0" encoding="iso-8859-1"?>
<!-- Generator: Adobe Illustrator 19.0.0, SVG Export Plug-In . SVG Version: 6.00 Build 0)  -->
<svg version="1.1" id="Layer_1" xmlns="http://www.w3.org/2000/svg" xmlns:xlink="http://www.w3.org/1999/xlink" x="0px" y="0px"
	 viewBox="0 0 512.052 512.052" style="enable-background:new 0 0 512.052 512.052;" xml:space="preserve">
<g>
	<g>
		<path d="M137.242,91.273v-1.109l-0.683-2.048c-5.771-16.391-17.334-30.109-32.512-38.571c-17.608-9.72-38.579-11.278-57.429-4.267
			c-9.487,3.592-18.109,9.146-25.303,16.298c-28.241,28.077-28.374,73.732-0.297,101.974c1.61,1.597,3.79,2.488,6.059,2.475
			c1.018,0.009,2.03-0.164,2.987-0.512l104.875-38.827c3.07-1.129,5.224-3.913,5.547-7.168
			C141.266,109.982,140.165,100.385,137.242,91.273z M29.551,147.508c-3.726-4.542-6.7-9.652-8.81-15.134
			c-10.92-28.369,3.226-60.218,31.594-71.138c5.791-2.144,11.916-3.242,18.091-3.243c8.667,0.099,17.172,2.358,24.747,6.571
			c11.695,6.399,20.625,16.879,25.088,29.44l0.853,2.475c1.552,5.205,2.328,10.611,2.304,16.043L29.551,147.508z"/>
	</g>
</g>
<g>
	<g>
		<path d="M157.893,145.119l-4.267-20.736c-0.961-5.104-4.069-9.549-8.533-12.203c-5.249-2.847-11.473-3.283-17.067-1.195
			l-102.4,38.059c-5.729,2-10.307,6.391-12.544,12.032c-1.928,4.911-1.648,10.414,0.768,15.104l9.643,18.688
			c3.363,6.268,9.954,10.124,17.067,9.984l1.365-0.085c2.153-0.141,4.277-0.571,6.315-1.28l96.853-35.925
			C154.252,164.192,159.656,154.717,157.893,145.119z M139.034,152.031l-96.341,35.755c-0.639-0.021-1.272-0.136-1.877-0.341
			c-0.798,0.154-1.617-0.141-2.133-0.768l-9.813-18.773c-0.167-0.321-0.167-0.703,0-1.024c0.466-1.012,1.331-1.785,2.389-2.133
			l102.4-37.973c0.508-0.091,1.028-0.091,1.536,0h-0.085c0.556,0.06,1.086,0.266,1.536,0.597c0.303,0.11,0.529,0.368,0.597,0.683
			l4.352,20.907C141.765,149.897,140.741,151.348,139.034,152.031z"/>
	</g>
</g>
<g>
	<g>
		<path d="M465.69,45.961c-18.815-7-39.744-5.474-57.344,4.181c-15.607,8.486-27.455,22.527-33.195,39.339
			c-0.341,0.939-0.939,1.877-0.939,2.731c-2.659,8.988-3.585,18.399-2.731,27.733c0.291,3.287,2.451,6.111,5.547,7.253h1.109h0.683
			l34.816,13.739h0.939l54.613,20.224h0.939l11.861,4.352c0.957,0.347,1.969,0.521,2.987,0.512c2.15-0.075,4.192-0.959,5.717-2.475
			c7.604-7.424,13.437-16.466,17.067-26.453C520.653,100.342,502.026,59.991,465.69,45.961z M491.717,130.953
			c-2.075,5.896-5.165,11.383-9.131,16.213l-5.632-2.048h-0.853l-54.613-20.651h-0.939l-32.256-11.947
			c0.015-5.463,0.82-10.895,2.389-16.128c0.171-0.597,0.427-1.195,0.853-2.475c4.297-12.716,13.223-23.348,25.003-29.781
			c13.262-7.326,29.058-8.51,43.264-3.243C487.753,71.65,501.946,102.805,491.717,130.953z"/>
	</g>
</g>
<g id="SVGCleanerId_0">
	<g>
		<path d="M425.754,132.404c0.012-3.571-2.202-6.771-5.547-8.021l-36.181-13.397c-4.015-1.029-8.189,0.976-9.895,4.753
			c-1.94,4.295-0.032,9.35,4.263,11.29l36.181,13.483c0.957,0.347,1.969,0.521,2.987,0.512l-0.341-0.085
			C421.933,140.937,425.754,137.117,425.754,132.404z"/>
	</g>
</g>
<g>
	<g>
		<path d="M425.754,132.404c0.012-3.571-2.202-6.771-5.547-8.021l-36.181-13.397c-4.015-1.029-8.189,0.976-9.895,4.753
			c-1.94,4.295-0.032,9.35,4.263,11.29l36.181,13.483c0.957,0.347,1.969,0.521,2.987,0.512l-0.341-0.085
			C421.933,140.937,425.754,137.117,425.754,132.404z"/>
	</g>
</g>
<g>
	<g>
		<path d="M470.554,187.785h-1.195l-96.256-36.181c-1.792-0.683-2.56-2.133-2.56-3.072l4.267-20.736
			c0.057-0.34,0.281-0.629,0.597-0.768c0.926-0.399,1.975-0.399,2.901,0c2.488,0.892,5.249,0.581,7.476-0.843
			c3.971-2.539,5.132-7.815,2.593-11.786c-0.202-6.086,0.576-12.166,2.304-18.005c0.171-0.597,0.427-1.195,0.853-2.475
			c4.363-12.593,13.283-23.095,25.003-29.44c1.09-0.584,2.04-1.398,2.785-2.385c2.837-3.763,2.087-9.114-1.676-11.951
			C370.57,16.483,313.887-1.085,256.026,0.052c-57.9-1.038-114.586,16.651-161.621,50.432c-0.987,0.745-1.801,1.695-2.385,2.785
			c-2.225,4.155-0.66,9.326,3.494,11.551c11.695,6.399,20.625,16.879,25.088,29.44l0.853,2.475
			c1.713,5.726,2.491,11.69,2.304,17.664c-1.648,2.302-2.047,5.272-1.065,7.927c1.635,4.42,6.543,6.678,10.964,5.044
			c0.951-0.423,2.036-0.423,2.987,0c0.303,0.11,0.529,0.368,0.597,0.683l4.267,20.907c0.256,0.939-0.768,2.389-2.475,3.072
			l-96.341,35.755h-1.195c-4.713,0-8.533,3.82-8.533,8.533s3.82,8.533,8.533,8.533l0.427-0.085c2.153-0.141,4.277-0.571,6.315-1.28
			l96.853-35.925c9.159-3.37,14.563-12.844,12.8-22.443l-4.267-20.736c-1.098-5.214-4.439-9.678-9.131-12.203
			c-1.323-0.729-2.726-1.301-4.181-1.707c-0.169-6.508-1.202-12.964-3.072-19.2v-1.109l-0.683-2.048
			c-4.348-12.228-11.926-23.05-21.931-31.317c42.258-26.725,91.405-40.517,141.397-39.68c49.963-0.82,99.078,12.971,141.312,39.68
			c-10.218,8.422-17.923,19.493-22.272,32c-0.341,0.939-0.939,1.877-0.939,2.731c-1.815,6.129-2.82,12.469-2.987,18.859
			c-1.459,0.432-2.862,1.034-4.181,1.792c-4.546,2.616-7.748,7.062-8.789,12.203l-4.267,20.736
			c-1.854,9.711,3.708,19.309,13.056,22.528l97.621,36.011c1.929,0.661,3.938,1.063,5.973,1.195c4.713,0,8.533-3.82,8.533-8.533
			S475.267,187.785,470.554,187.785z"/>
	</g>
</g>
<g id="SVGCleanerId_1">
	<g>
		<path d="M420.207,124.383l-36.181-13.397c-3.929-0.915-7.961,1.045-9.668,4.7c-1.994,4.27-0.149,9.348,4.122,11.342l36.181,13.483
			c0.93,0.338,1.912,0.511,2.901,0.512l-0.341-0.085c3.618,0.032,6.864-2.221,8.098-5.623
			C426.926,130.884,424.638,125.99,420.207,124.383z"/>
	</g>
</g>
<g>
	<g>
		<path d="M498.714,160.735c-2.228-5.617-6.768-10.001-12.459-12.032l-9.728-3.584h-0.853l-91.648-34.133
			c-5.591-2.111-11.825-1.674-17.067,1.195c-4.546,2.616-7.748,7.062-8.789,12.203l-4.267,20.736
			c-1.854,9.711,3.708,19.309,13.056,22.528l97.28,36.011c1.875,0.647,3.825,1.049,5.803,1.195h1.451
			c6.99-0.082,13.361-4.022,16.555-10.24l9.813-18.773C500.315,171.164,500.626,165.656,498.714,160.735z M482.671,168.159
			l-9.813,18.773c-0.454,0.616-1.203,0.941-1.963,0.853c-0.507,0.099-1.029,0.099-1.536,0l-96.256-36.437
			c-1.792-0.683-2.56-2.133-2.56-3.072l4.267-20.736c0.057-0.34,0.281-0.629,0.597-0.768c0.476-0.119,0.974-0.119,1.451,0
			c0.504,0.058,0.995,0.202,1.451,0.427h0.512l89.941,33.877h0.939l10.581,3.925c1.058,0.348,1.924,1.121,2.389,2.133
			C482.838,167.455,482.838,167.838,482.671,168.159z"/>
	</g>
</g>
<g>
	<g>
		<g>
			<path d="M425.754,188.809c-0.019,0-0.037-0.002-0.056-0.002c-0.01,0-0.019,0.002-0.029,0.002H425.754z"/>
			<path d="M428.655,172.255l-55.637-20.651c-1.792-0.683-2.56-2.133-2.56-3.072l4.267-20.736c0.057-0.34,0.282-0.629,0.597-0.768
				c0.926-0.399,1.975-0.399,2.901,0c2.488,0.892,5.249,0.581,7.477-0.843c3.971-2.539,5.131-7.815,2.593-11.786
				c-0.195-6.058,0.582-12.108,2.304-17.92c1.057-3.482-0.211-7.251-3.157-9.387c-38.799-26.095-84.662-39.675-131.413-38.912
				c-46.779-0.688-92.644,12.982-131.413,39.168c-2.946,2.136-4.214,5.905-3.157,9.387c1.713,5.726,2.491,11.69,2.304,17.664
				c-1.648,2.302-2.047,5.272-1.065,7.927c1.635,4.42,6.543,6.678,10.964,5.044c0.951-0.423,2.036-0.423,2.987,0
				c0.303,0.11,0.529,0.368,0.597,0.683l4.267,20.48c0.256,0.939-0.768,2.389-2.475,3.072l-55.637,20.651
				c-0.311,0.097-0.617,0.211-0.915,0.342c-4.312,1.902-6.266,6.939-4.364,11.251c1.902,4.312,6.94,6.266,11.251,4.364
				l55.723-20.651c9.159-3.37,14.563-12.844,12.8-22.443l-4.267-20.736c-1.001-5.135-4.175-9.585-8.704-12.203
				c-1.323-0.729-2.726-1.302-4.181-1.707c-0.104-4.301-0.589-8.585-1.451-12.8c34.99-21.796,75.517-33.054,116.736-32.427
				c41.152-0.62,81.615,10.607,116.565,32.341c-0.857,4.216-1.342,8.499-1.451,12.8c-1.459,0.432-2.862,1.034-4.181,1.792
				c-4.546,2.616-7.748,7.062-8.789,12.203l-4.267,20.736c-1.854,9.711,3.708,19.309,13.056,22.528l55.808,20.651
				c0.939,0.341,1.931,0.512,2.93,0.51c3.607,0.02,6.838-2.228,8.069-5.621C435.374,178.756,433.086,173.862,428.655,172.255z"/>
		</g>
	</g>
</g>
<g>
	<g>
		<path d="M420.207,124.383l-36.181-13.397c-3.929-0.915-7.961,1.045-9.668,4.7c-1.994,4.27-0.149,9.348,4.122,11.342l36.181,13.483
			c0.93,0.338,1.912,0.511,2.901,0.512l-0.341-0.085c3.618,0.032,6.864-2.221,8.098-5.623
			C426.926,130.884,424.638,125.99,420.207,124.383z"/>
	</g>
</g>
<g>
	<g>
		<path d="M309.914,60.169c-4.477-1.484-9.31,0.942-10.795,5.419l-6.571,19.797h-2.389c-9.426,0-17.067,7.641-17.067,17.067v8.533
			h-34.133v-8.533c0-9.426-7.641-17.067-17.067-17.067h-2.389l-6.571-19.797c-1.485-4.477-6.318-6.903-10.795-5.419
			c-4.477,1.484-6.903,6.317-5.419,10.795l6.571,19.797c2.318,6.985,8.853,11.697,16.213,11.691h2.389v8.533
			c0,9.426,7.641,17.067,17.067,17.067h34.133c9.426,0,17.067-7.641,17.067-17.067v-8.533h2.389
			c7.36,0.007,13.895-4.706,16.213-11.691l6.571-19.797C316.817,66.487,314.391,61.654,309.914,60.169z"/>
	</g>
</g>
<g>
	<g>
		<path d="M503.493,404.105L372.847,227.721c-6.625-8.957-17.104-14.244-28.245-14.251c-8.116-0.183-15.106-5.775-17.067-13.653
			l-3.243-13.056v-58.709h2.731c6.994,0.007,13.284-4.254,15.872-10.752l14.933-37.291c1.744-4.383-0.396-9.35-4.779-11.093
			c-4.383-1.744-9.35,0.396-11.093,4.779l-14.933,37.291h-2.731c-9.426,0-17.067,7.641-17.067,17.067v59.733
			c-0.082,0.68-0.082,1.368,0,2.048l3.669,14.08c3.924,15.641,18.007,26.592,34.133,26.539c5.728,0,11.114,2.724,14.507,7.339
			L489.925,414.26c3.258,4.395,5.023,9.718,5.035,15.189v57.003c0,4.713-3.82,8.533-8.533,8.533h-460.8
			c-4.713,0-8.533-3.82-8.533-8.533v-57.003c0.012-5.471,1.776-10.794,5.035-15.189l130.56-176.555
			c3.402-4.604,8.782-7.325,14.507-7.339c16.136,0.084,30.237-10.879,34.133-26.539l3.499-13.995c0.082-0.68,0.082-1.368,0-2.048
			v-59.733c0-9.426-7.641-17.067-17.067-17.067h-2.731l-14.933-37.291c-1.744-4.383-6.71-6.522-11.093-4.779
			c-4.383,1.744-6.522,6.71-4.779,11.093l14.933,37.291c2.588,6.498,8.878,10.759,15.872,10.752h2.731v58.709l-3.669,12.971
			c-1.96,7.878-8.95,13.47-17.067,13.653c-11.141,0.006-21.62,5.293-28.245,14.251L8.559,403.849
			c-5.539,7.385-8.533,16.368-8.533,25.6v57.003c0,14.138,11.461,25.6,25.6,25.6h460.8c14.138,0,25.6-11.461,25.6-25.6v-56.747
			C512.026,420.473,509.032,411.491,503.493,404.105z"/>
	</g>
</g>
<g>
	<g>
		<path d="M256.026,221.919c-70.692,0-128,57.308-128,128s57.308,128,128,128s128-57.308,128-128S326.718,221.919,256.026,221.919z
			 M256.026,460.852c-61.267,0-110.933-49.667-110.933-110.933s49.667-110.933,110.933-110.933s110.933,49.667,110.933,110.933
			S317.293,460.852,256.026,460.852z"/>
	</g>
</g>
<g>
	<g>
		<path d="M256.026,290.185c-32.99,0-59.733,26.744-59.733,59.733s26.744,59.733,59.733,59.733s59.733-26.744,59.733-59.733
			S289.016,290.185,256.026,290.185z M256.026,392.585c-23.564,0-42.667-19.102-42.667-42.667s19.102-42.667,42.667-42.667
			s42.667,19.103,42.667,42.667S279.59,392.585,256.026,392.585z"/>
	</g>
</g>
<g>
	<g>
		<path d="M162.159,418.185H42.693c-4.713,0-8.533,3.82-8.533,8.533s3.82,8.533,8.533,8.533h119.467c4.713,0,8.533-3.82,8.533-8.533
			S166.872,418.185,162.159,418.185z"/>
	</g>
</g>
<g>
	<g>
		<path d="M469.359,418.185H349.893c-4.713,0-8.533,3.82-8.533,8.533s3.82,8.533,8.533,8.533h119.467
			c4.713,0,8.533-3.82,8.533-8.533S474.072,418.185,469.359,418.185z"/>
	</g>
</g>
<g>
	<g>
		<path d="M273.093,145.119h-34.133c-9.426,0-17.067,7.641-17.067,17.067v25.6c0,9.426,7.641,17.067,17.067,17.067h34.133
			c9.426,0,17.067-7.641,17.067-17.067v-25.6C290.159,152.76,282.518,145.119,273.093,145.119z M273.093,187.785h-34.133v-25.6
			h34.133V187.785z"/>
	</g>
</g>
<g>
	<g>
		<path d="M263.877,261.343c-0.406-1.047-1.015-2.004-1.792-2.816c-2.454-2.421-6.124-3.128-9.301-1.792
			c-2.144,0.776-3.832,2.464-4.608,4.608c-0.417,1.016-0.635,2.102-0.64,3.2c-0.023,4.713,3.778,8.552,8.491,8.576
			c1.115-0.013,2.217-0.245,3.243-0.683c1.034-0.432,1.987-1.038,2.816-1.792C264.506,268.19,265.213,264.52,263.877,261.343z"/>
	</g>
</g>
<g>
	<g>
		<path d="M262.085,429.193c-0.829-0.754-1.782-1.36-2.816-1.792c-2.058-0.946-4.427-0.946-6.485,0
			c-1.034,0.432-1.987,1.038-2.816,1.792c-1.559,1.635-2.443,3.799-2.475,6.059c0.013,1.115,0.245,2.217,0.683,3.243
			c0.434,1.033,1.04,1.986,1.792,2.816c1.61,1.597,3.79,2.488,6.059,2.475c1.115-0.013,2.217-0.245,3.243-0.683
			c1.034-0.432,1.987-1.038,2.816-1.792c0.751-0.831,1.357-1.783,1.792-2.816c0.437-1.026,0.669-2.128,0.683-3.243
			C264.528,432.993,263.644,430.829,262.085,429.193z"/>
	</g>
</g>
<g>
	<g>
		<path d="M221.21,273.119c-0.425-1.037-1.051-1.981-1.841-2.776c-3.321-3.343-8.724-3.361-12.068-0.04
			c-0.777,0.812-1.386,1.769-1.792,2.816c-1.187,3.082-0.489,6.572,1.792,8.96c0.829,0.754,1.782,1.36,2.816,1.792
			c1.026,0.437,2.128,0.669,3.243,0.683c2.331-0.098,4.521-1.147,6.059-2.901C221.533,279.35,222.221,276.077,221.21,273.119z"/>
	</g>
</g>
<g>
	<g>
		<path d="M306.543,420.575c-0.776-2.144-2.464-3.832-4.608-4.608c-3.178-1.336-6.847-0.629-9.301,1.792
			c-0.777,0.812-1.386,1.768-1.792,2.816c-0.902,2.068-0.902,4.418,0,6.485c0.776,2.144,2.464,3.832,4.608,4.608
			c1.026,0.437,2.128,0.669,3.243,0.683c2.268,0.013,4.448-0.877,6.059-2.475c0.751-0.831,1.357-1.783,1.792-2.816
			c0.478-1.013,0.712-2.123,0.683-3.243C307.212,422.702,306.981,421.6,306.543,420.575z"/>
	</g>
</g>
<g>
	<g>
		<path d="M189.978,304.009c-0.776-2.144-2.464-3.832-4.608-4.608c-2.078-0.853-4.408-0.853-6.485,0
			c-2.144,0.776-3.832,2.464-4.608,4.608c-0.417,1.016-0.635,2.102-0.64,3.2c-0.023,4.713,3.778,8.552,8.491,8.576
			c2.268,0.013,4.448-0.877,6.059-2.475c1.597-1.61,2.488-3.79,2.475-6.059C190.647,306.137,190.415,305.035,189.978,304.009z"/>
	</g>
</g>
<g>
	<g>
		<path d="M337.775,389.343c-0.406-1.047-1.015-2.004-1.792-2.816c-0.42-0.386-0.877-0.729-1.365-1.024
			c-0.435-0.339-0.926-0.599-1.451-0.768c-0.484-0.245-1.002-0.417-1.536-0.512c-1.664-0.325-3.387-0.147-4.949,0.512
			c-1.034,0.432-1.987,1.038-2.816,1.792c-0.777,0.812-1.386,1.768-1.792,2.816c-1.336,3.178-0.629,6.848,1.792,9.301
			c0.829,0.754,1.782,1.36,2.816,1.792c1.026,0.437,2.128,0.669,3.243,0.683c1.115-0.013,2.217-0.245,3.243-0.683
			c1.034-0.432,1.987-1.038,2.816-1.792C338.405,396.19,339.112,392.52,337.775,389.343z"/>
	</g>
</g>
<g>
	<g>
		<path d="M178.543,346.676c-0.776-2.144-2.464-3.832-4.608-4.608c-3.178-1.336-6.847-0.629-9.301,1.792
			c-0.777,0.812-1.386,1.769-1.792,2.816c-1.336,3.178-0.629,6.847,1.792,9.301c0.829,0.754,1.782,1.36,2.816,1.792
			c1.026,0.437,2.128,0.669,3.243,0.683c1.098-0.005,2.185-0.223,3.2-0.64C178.252,356.021,180.334,351.035,178.543,346.676z"/>
	</g>
</g>
<g>
	<g>
		<path d="M349.21,346.505c-0.434-1.033-1.04-1.986-1.792-2.816l-1.28-1.024c-0.475-0.325-0.991-0.583-1.536-0.768
			c-0.484-0.245-1.002-0.417-1.536-0.512c-2.841-0.544-5.764,0.387-7.765,2.475c-0.754,0.829-1.36,1.782-1.792,2.816
			c-1.336,3.178-0.629,6.847,1.792,9.301c0.829,0.754,1.782,1.36,2.816,1.792c1.026,0.437,2.128,0.669,3.243,0.683
			c4.713,0,8.533-3.82,8.533-8.533C349.949,348.742,349.715,347.57,349.21,346.505z"/>
	</g>
</g>
<g>
	<g>
		<path d="M189.978,389.343c-0.406-1.047-1.015-2.004-1.792-2.816c-0.42-0.386-0.877-0.729-1.365-1.024
			c-0.434-0.341-0.925-0.601-1.451-0.768c-0.485-0.244-1.002-0.416-1.536-0.512c-1.664-0.325-3.387-0.147-4.949,0.512
			c-2.144,0.776-3.832,2.464-4.608,4.608c-1.336,3.178-0.629,6.848,1.792,9.301c0.829,0.754,1.782,1.36,2.816,1.792
			c1.026,0.437,2.128,0.669,3.243,0.683c0.971-0.065,1.923-0.296,2.816-0.683c1.034-0.432,1.987-1.038,2.816-1.792
			C190.33,396.288,191.208,392.605,189.978,389.343z"/>
	</g>
</g>
<g>
	<g>
		<path d="M337.775,304.009c-0.431-1.035-1.037-1.988-1.792-2.816c-0.812-0.777-1.769-1.386-2.816-1.792
			c-2.078-0.853-4.408-0.853-6.485,0c-2.144,0.776-3.832,2.464-4.608,4.608c-0.417,1.016-0.635,2.102-0.64,3.2
			c-0.023,4.713,3.778,8.552,8.491,8.576c2.268,0.013,4.448-0.877,6.059-2.475c1.597-1.61,2.488-3.79,2.475-6.059
			C338.487,306.133,338.253,305.022,337.775,304.009z"/>
	</g>
</g>
<g>
	<g>
		<path d="M221.21,420.575c-0.406-1.047-1.015-2.004-1.792-2.816c-0.016-0.017-0.033-0.033-0.049-0.049
			c-3.346-3.319-8.749-3.297-12.068,0.049c-0.777,0.812-1.386,1.769-1.792,2.816c-0.437,1.026-0.669,2.128-0.683,3.243
			c-0.029,1.119,0.205,2.23,0.683,3.243c0.434,1.033,1.04,1.986,1.792,2.816c1.61,1.597,3.791,2.488,6.059,2.475
			c1.115-0.014,2.217-0.245,3.243-0.683c1.034-0.432,1.987-1.038,2.816-1.792c0.751-0.831,1.357-1.783,1.792-2.816
			C222.123,424.994,222.123,422.64,221.21,420.575z"/>
	</g>
</g>
<g>
	<g>
		<path d="M306.543,272.777c-0.776-2.144-2.464-3.832-4.608-4.608c-3.178-1.336-6.847-0.629-9.301,1.792
			c-0.777,0.812-1.386,1.768-1.792,2.816c-0.437,1.026-0.669,2.128-0.683,3.243c0,4.713,3.82,8.533,8.533,8.533
			c2.268,0.013,4.448-0.877,6.059-2.475c1.597-1.61,2.488-3.79,2.475-6.059C307.255,274.901,307.021,273.79,306.543,272.777z"/>
	</g>
</g>
<g>
</g>
<g>
</g>
<g>
</g>
<g>
</g>
<g>
</g>
<g>
</g>
<g>
</g>
<g>
</g>
<g>
</g>
<g>
</g>
<g>
</g>
<g>
</g>
<g>
</g>
<g>
</g>
<g>
</g>
</svg>
