<?xml version="1.0" encoding="iso-8859-1"?>
<!-- Generator: Adobe Illustrator 19.0.0, SVG Export Plug-In . SVG Version: 6.00 Build 0)  -->
<svg version="1.1" id="Layer_1" xmlns="http://www.w3.org/2000/svg" xmlns:xlink="http://www.w3.org/1999/xlink" x="0px" y="0px"
	 viewBox="0 0 512 512" style="enable-background:new 0 0 512 512;" xml:space="preserve">
<g>
	<g>
		<path d="M128,179.2h-25.6c-4.713,0-8.533,3.82-8.533,8.533s3.82,8.533,8.533,8.533H128c4.713,0,8.533-3.82,8.533-8.533
			S132.713,179.2,128,179.2z"/>
	</g>
</g>
<g>
	<g>
		<path d="M84.651,184.32c-0.776-2.144-2.464-3.832-4.608-4.608c-1.529-0.673-3.229-0.852-4.864-0.512
			c-0.576,0.132-1.124,0.363-1.621,0.683c-0.544,0.187-1.06,0.445-1.536,0.768l-1.28,1.024c-1.597,1.61-2.488,3.79-2.475,6.059
			c0.013,1.115,0.245,2.217,0.683,3.243c0.432,1.034,1.038,1.987,1.792,2.816c1.635,1.559,3.799,2.443,6.059,2.475
			c1.127-0.067,2.229-0.357,3.243-0.853c1.033-0.435,1.985-1.041,2.816-1.792c0.777-0.812,1.386-1.768,1.792-2.816
			C85.564,188.74,85.564,186.385,84.651,184.32z"/>
	</g>
</g>
<g>
	<g>
		<path d="M346.112,114.432c-7.033-9.796-15.617-18.379-25.412-25.412c-49.768-35.733-119.079-24.355-154.812,25.412
			c-0.144,0.183-0.28,0.372-0.409,0.566c-2.601,3.93-1.523,9.225,2.408,11.825c3.93,2.601,9.225,1.523,11.825-2.407
			c5.972-8.33,13.267-15.625,21.597-21.597c42.133-30.205,100.774-20.536,130.979,21.597c1.593,2.237,4.165,3.571,6.912,3.584
			c1.818,0.005,3.589-0.571,5.057-1.643C348.062,123.576,348.893,118.237,346.112,114.432z"/>
	</g>
</g>
<g>
	<g>
		<path d="M93.867,460.8h-51.2c-4.713,0-8.533,3.82-8.533,8.533V486.4c0,14.138,11.461,25.6,25.6,25.6H76.8
			c14.138,0,25.6-11.461,25.6-25.6v-17.067C102.4,464.621,98.58,460.8,93.867,460.8z M85.333,486.4c0,4.713-3.82,8.533-8.533,8.533
			H59.733c-4.713,0-8.533-3.82-8.533-8.533v-8.533h34.133V486.4z"/>
	</g>
</g>
<g>
	<g>
		<path d="M469.333,460.8h-51.2c-4.713,0-8.533,3.82-8.533,8.533V486.4c0,14.138,11.461,25.6,25.6,25.6h17.067
			c14.138,0,25.6-11.461,25.6-25.6v-17.067C477.867,464.621,474.046,460.8,469.333,460.8z M460.8,486.4
			c0,4.713-3.821,8.533-8.533,8.533H435.2c-4.713,0-8.533-3.82-8.533-8.533v-8.533H460.8V486.4z"/>
	</g>
</g>
<g>
	<g>
		<rect x="307.948" y="59.702" transform="matrix(0.8321 -0.5547 0.5547 0.8321 21.623 207.887)" width="92.331" height="17.067"/>
	</g>
</g>
<g>
	<g>
		<path d="M405.333,0c-16.495,0-29.867,13.372-29.867,29.867c0,16.495,13.372,29.867,29.867,29.867
			c16.495,0,29.867-13.372,29.867-29.867C435.2,13.372,421.828,0,405.333,0z M405.333,42.667c-7.069,0-12.8-5.731-12.8-12.8
			c0-7.069,5.731-12.8,12.8-12.8c7.069,0,12.8,5.731,12.8,12.8C418.133,36.936,412.403,42.667,405.333,42.667z"/>
	</g>
</g>
<g>
	<g>
		
			<rect x="149.319" y="22.141" transform="matrix(0.5547 -0.8321 0.8321 0.5547 13.4572 161.7582)" width="17.067" height="92.331"/>
	</g>
</g>
<g>
	<g>
		<path d="M106.667,0C90.172,0,76.8,13.372,76.8,29.867c0,16.495,13.372,29.867,29.867,29.867c16.495,0,29.867-13.372,29.867-29.867
			C136.533,13.372,123.162,0,106.667,0z M106.667,42.667c-7.069,0-12.8-5.731-12.8-12.8c0-7.069,5.731-12.8,12.8-12.8
			c7.069,0,12.8,5.731,12.8,12.8C119.467,36.936,113.736,42.667,106.667,42.667z"/>
	</g>
</g>
<g>
	<g>
		<path d="M469.333,110.933H42.667C19.576,110.552,0.513,128.891,0,151.979v284.843c0.513,23.088,19.576,41.427,42.667,41.045
			h426.667c23.09,0.381,42.154-17.958,42.667-41.045V151.979C511.487,128.891,492.424,110.552,469.333,110.933z M494.933,436.821
			c-0.464,13.684-11.915,24.41-25.6,23.979H42.667c-13.685,0.431-25.136-10.295-25.6-23.979V151.979
			c0.464-13.684,11.915-24.41,25.6-23.979h426.667c13.685-0.431,25.136,10.295,25.6,23.979V436.821z"/>
	</g>
</g>
<g>
	<g>
		<path d="M349.867,145.067H59.733c-14.138,0-25.6,11.462-25.6,25.6v249.003c0,14.138,11.461,25.6,25.6,25.6h290.133
			c14.138,0,25.6-11.461,25.6-25.6V170.667C375.467,156.528,364.005,145.067,349.867,145.067z M358.4,419.669
			c0,4.713-3.82,8.533-8.533,8.533H59.733c-4.713,0-8.533-3.82-8.533-8.533V170.667c0-4.713,3.82-8.533,8.533-8.533h290.133
			c4.713,0,8.533,3.82,8.533,8.533V419.669z"/>
	</g>
</g>
<g>
	<g>
		<path d="M435.2,145.067c-23.564,0-42.667,19.103-42.667,42.667S411.636,230.4,435.2,230.4s42.667-19.103,42.667-42.667
			S458.764,145.067,435.2,145.067z M435.2,213.333c-14.138,0-25.6-11.462-25.6-25.6s11.461-25.6,25.6-25.6s25.6,11.461,25.6,25.6
			S449.339,213.333,435.2,213.333z"/>
	</g>
</g>
<g>
	<g>
		<path d="M435.2,247.467c-23.564,0-42.667,19.103-42.667,42.667S411.636,332.8,435.2,332.8s42.667-19.102,42.667-42.667
			S458.764,247.467,435.2,247.467z M435.2,315.733c-14.138,0-25.6-11.461-25.6-25.6s11.461-25.6,25.6-25.6s25.6,11.462,25.6,25.6
			S449.339,315.733,435.2,315.733z"/>
	</g>
</g>
<g>
	<g>
		<path d="M469.333,358.4h-68.267c-4.713,0-8.533,3.82-8.533,8.533s3.821,8.533,8.533,8.533h68.267c4.713,0,8.533-3.82,8.533-8.533
			S474.046,358.4,469.333,358.4z"/>
	</g>
</g>
<g>
	<g>
		<path d="M469.333,392.533h-68.267c-4.713,0-8.533,3.821-8.533,8.533s3.821,8.533,8.533,8.533h68.267
			c4.713,0,8.533-3.82,8.533-8.533S474.046,392.533,469.333,392.533z"/>
	</g>
</g>
<g>
	<g>
		<path d="M469.333,426.667h-68.267c-4.713,0-8.533,3.82-8.533,8.533s3.821,8.533,8.533,8.533h68.267
			c4.713,0,8.533-3.82,8.533-8.533S474.046,426.667,469.333,426.667z"/>
	</g>
</g>
<g>
</g>
<g>
</g>
<g>
</g>
<g>
</g>
<g>
</g>
<g>
</g>
<g>
</g>
<g>
</g>
<g>
</g>
<g>
</g>
<g>
</g>
<g>
</g>
<g>
</g>
<g>
</g>
<g>
</g>
</svg>
